# xmcd CD database file
#
# Track frame offsets:
#	150
#	11405
#	43335
#	71339
#	95950
#	126193
#	141440
#	157663
#	169974
#	185294
#	195832
#	221059
#
# Disc length: 3205 seconds
#
# Revision: 0
# Processed by: cddbd v1.5.2PL0 Copyright (c) Steve Scherf et al.
# Submitted via: CDex 1.51
#
DISCID=a80c830c
DTITLE=VVAA - Jazz Goes Latin CD1
DYEAR=1900
DGENRE=Jazz
TTITLE0=Coleman Hawkins - Carioca
TTITLE1=Dizzy Gillespie - Manteca
TTITLE2=Stan Getz and Charlie Byrd - Samba de Uma Nota So
TTITLE3=Kenny Burrell - Chitlins Con Carne
TTITLE4=Cannonball Adderley - Corcovado (Quiet Nights Of Quiet Stars)
TTITLE5=Shorty Rogers and His Orchestra - Chora Tua Tristeza
TTITLE6=Cal Tjader - Pantano
TTITLE7=Charlie Parker - Un Poquito De Tu Amor
TTITLE8=Tito Puente - Whats Is This Thing Called Love
TTITLE9=Antonio Carlos Jobim - Se Tudos Fossem Iguais A Voce
TTITLE10=Charlie Byrd - The Duck
TTITLE11=Stan Getz - Chega de Saudade
EXTD=
EXTT0=
EXTT1=
EXTT2=
EXTT3=
EXTT4=
EXTT5=
EXTT6=
EXTT7=
EXTT8=
EXTT9=
EXTT10=
EXTT11=
PLAYORDER=
